<svg id="SvgjsSvg1001" width="288" height="288" xmlns="http://www.w3.org/2000/svg" version="1.1" xmlns:xlink="http://www.w3.org/1999/xlink" xmlns:svgjs="http://svgjs.com/svgjs"><defs id="SvgjsDefs1002"></defs><g id="SvgjsG1008"><svg xmlns="http://www.w3.org/2000/svg" width="288" height="288" viewBox="0 0 24 24"><path d="M1 13h-1v-1h1v1zm22-1h-1v1h1v-1zm-20-1h-1v3h1v-3zm18 0h-1v3h1v-3zm-14 0h-1v3h1v-3zm10-1h-1v5h1v-5zm-12 0h-1v5h1v-5zm14-1h-1v7h1v-7zm-10 0h-1v7h1v-7zm2-2h-1v10h1v-10zm4 0h-1v10h1v-10zm-2-2h-1v14h1v-14z" fill="#ffffff" class="color000 svgShape"></path></svg></g></svg>